<svg xmlns="http://www.w3.org/2000/svg" viewBox="0 0 32 32" width="32" height="32">
  <defs>
    <!-- Gradiente celeste para el fondo -->
    <linearGradient id="bgGradient" x1="0%" y1="0%" x2="100%" y2="100%">
      <stop offset="0%" style="stop-color:#0ea5e9;stop-opacity:1" />
      <stop offset="100%" style="stop-color:#0284c7;stop-opacity:1" />
    </linearGradient>
    
    <!-- Gradiente celeste claro -->
    <linearGradient id="lightBlueGradient" x1="0%" y1="0%" x2="100%" y2="100%">
      <stop offset="0%" style="stop-color:#7dd3fc;stop-opacity:1" />
      <stop offset="100%" style="stop-color:#38bdf8;stop-opacity:1" />
    </linearGradient>
    
    <!-- Gradiente celeste oscuro -->
    <linearGradient id="darkBlueGradient" x1="0%" y1="0%" x2="100%" y2="100%">
      <stop offset="0%" style="stop-color:#0369a1;stop-opacity:1" />
      <stop offset="100%" style="stop-color:#075985;stop-opacity:1" />
    </linearGradient>
  </defs>
  
  <!-- Fondo circular celeste -->
  <circle cx="16" cy="16" r="15" fill="url(#bgGradient)" stroke="#0369a1" stroke-width="1"/>
  
  <!-- Cabeza principal del robot -->
  <path d="M 8 14 L 8 10 Q 8 8 10 8 L 22 8 Q 24 8 24 10 L 24 14 Q 24 16 22 16 L 10 16 Q 8 16 8 14 Z" fill="white" stroke="#bae6fd" stroke-width="0.5"/>
  
  <!-- Visor principal -->
  <rect x="10" y="10" width="12" height="4" rx="2" fill="url(#darkBlueGradient)"/>
  
  <!-- Líneas del visor (efecto tecnológico) -->
  <line x1="11" y1="11.5" x2="21" y2="11.5" stroke="#7dd3fc" stroke-width="0.5" opacity="0.8"/>
  <line x1="11" y1="12.5" x2="18" y2="12.5" stroke="#bae6fd" stroke-width="0.3" opacity="0.7"/>
  <line x1="11" y1="13.5" x2="15" y2="13.5" stroke="#bae6fd" stroke-width="0.3" opacity="0.6"/>
  
  <!-- Indicador LED -->
  <circle cx="20" cy="12" r="0.8" fill="#22d3ee"/>
  <circle cx="20" cy="12" r="0.4" fill="white" opacity="0.9"/>
  
  <!-- Cuerpo del robot -->
  <rect x="10" y="16" width="12" height="10" rx="1" fill="white" stroke="#bae6fd" stroke-width="0.5"/>
  
  <!-- Panel de control central -->
  <rect x="12" y="18" width="8" height="6" rx="0.5" fill="url(#lightBlueGradient)" stroke="#0ea5e9" stroke-width="0.3"/>
  
  <!-- Elementos del panel -->
  <rect x="13" y="19" width="6" height="0.5" rx="0.25" fill="white" opacity="0.9"/>
  <rect x="13" y="20" width="4" height="0.3" rx="0.15" fill="url(#darkBlueGradient)"/>
  <rect x="13" y="21" width="3" height="0.3" rx="0.15" fill="url(#darkBlueGradient)"/>
  
  <!-- Conectores laterales -->
  <rect x="7" y="18" width="3" height="1" rx="0.5" fill="url(#lightBlueGradient)"/>
  <rect x="22" y="18" width="3" height="1" rx="0.5" fill="url(#lightBlueGradient)"/>
  
  <!-- Indicadores de estado -->
  <circle cx="18.5" cy="21.5" r="0.4" fill="white" opacity="0.9"/>
  <circle cx="17" cy="22.5" r="0.3" fill="#0ea5e9" opacity="0.8"/>
  
  <!-- Base/soporte -->
  <rect x="13" y="26" width="6" height="2" rx="1" fill="url(#lightBlueGradient)"/>
  
  <!-- Detalles de profundidad -->
  <line x1="10" y1="17" x2="22" y2="17" stroke="#bae6fd" stroke-width="0.2" opacity="0.6"/>
  <line x1="10" y1="25" x2="22" y2="25" stroke="#bae6fd" stroke-width="0.2" opacity="0.6"/>
  
  <!-- Antenas/sensores -->
  <line x1="14" y1="8" x2="14" y2="6" stroke="#0ea5e9" stroke-width="0.8"/>
  <line x1="18" y1="8" x2="18" y2="6" stroke="#0ea5e9" stroke-width="0.8"/>
  <circle cx="14" cy="6" r="0.6" fill="white"/>
  <circle cx="18" cy="6" r="0.6" fill="white"/>
</svg>